<?xml version="1.0" encoding="UTF-8"?>
<svg xmlns="http://www.w3.org/2000/svg" version="1.1" viewBox="0 0 1800 1800">
  <defs>
    <style>
      .cls-1 {
        display: none;
      }
    </style>
  </defs>
  <!-- Generator: Adobe Illustrator 28.7.1, SVG Export Plug-In . SVG Version: 1.2.0 Build 142)  -->
  <g>
    <g id="Camada_1">
      <g>
        <path class="cls-1" d="M-58.3,1860V-60h1920v1920H-58.3ZM611.2,948.4c6.6-2.4,12.2-3.8,17.1-6.4,17.2-9,34-18.5,51.2-27.5,7.6-4,15.4-8.4,23.7-10.2,10.1-2.2,20.7-2.7,31.1-2.5,29.7.5,56.7,10.3,81.7,26,2.3,1.4,3.6,2.9,3.4,5.9-.3,6.5,2.3,11.9,6.7,16.6,8.8,9.2,18.4,17.4,29.4,23.8,9.4,5.4,19,10.4,28,16.2,11.5,7.5,21.9,16.5,30.4,27.2,7.6,9.5,15.9,18.8,17.2,32,1.3,13.7-5.6,19.6-18.6,14.7-1.2-.5-2.5-1-3.6-1.7-10.1-6.5-20.3-12.7-30.1-19.5-15.9-11.1-33.4-17.2-52.8-16.9-19.8.3-39.6,1.3-59.4,1.7-28,.5-56,.9-83.9,1-12.6,0-25.4,0-37.9-1.3-30.3-2.8-60.6-5.8-90.9-9.6-29.7-3.8-59.4-8.1-88.8-13.5-11.1-2-19.1-1.5-27.8,7-21.3,20.9-40.2,43.2-50.8,71.4-5.1,13.6-6.7,13.8,9.8,17.2,17.4,3.6,35,6.7,52.5,9.5,47.1,7.6,94.1,16.3,141.5,22.2,56,6.9,112.2,11.9,168.4,16.7,34.7,2.9,69.5,4.8,104.2,5.4,43,.8,85.9-.5,128.9-.3,36.3,0,72.6,1.9,108.6-4.5,12.6-2.2,25.2-4.7,37.7-7.2,2.4-.5,5.7-1,4.5-5-5.1-16.3-9-33.2-15.9-48.8-8.5-19.3-18.8-37.9-29.7-56-20.6-34-41-68.1-57.7-104.3-1.4-3.1-2.3-6.5-3.2-9.9-.7-2.8.2-4.4,3.4-5.3,7.5-2.1,14.8-5.1,22.3-7.1,12.5-3.2,20.1-11.3,25.4-22.7,7.4-15.8,15.4-31.4,23.2-47,7.3-14.6,19.3-22.3,35.4-24.1,12.9-1.4,25.8-3.2,38.7-4.6,12.2-1.3,22.9-5.4,28.2-17.4,5.4-12.1,8.8-24.6,6.1-38.3-2.1-10.8-3.4-21.7-4.4-32.6-.6-7,0-14,0-22.2,3.9,2.3,6.4,3.6,8.7,5.1,10.3,6.5,20.2,13.7,30.8,19.4,19.1,10.2,36.7,22.3,51.3,38.5,8.6,9.5,15.4,20.2,17.8,33,1.3,6.8,1.6,13.8,2.2,20.8.2,2.8.6,5,4.3,4.6,7.7-1,14.6-3.5,21.1-8.1,11.4-8.2,16.1-20.4,20.9-32.7.9-2.3.4-5.2,0-7.8-.8-6.4-2-12.8-2.7-19.2-.6-5-.7-10-1-15-.4,0-.8,0-1.2,0-.7,2.6-1,5.4-2.3,7.7-1.8,3.2-4.7,5.8-6.4,9-1.4,2.7-2.6,3.6-5.3,1.8-1.1-.7-2.7-.6-3.9-1.2-1.7-.8-3.3-1.7-4.7-3-.9-.8-1.2-3.2-1.9-3.2-4.9-.3-5-4.7-7-7.5-.6-.9-1.5-1.5-2.1-2.4-2.5-3.7-5.5-7.3-7.3-11.3-2.7-5.8-4.6-12-6.8-18,0-.3-.5-.4-.7-.7-1.7-2.5-4.5-4.9-4.9-7.7-.9-5.2-2.2-9.7-6.5-13.2-.9-.7-1.4-2.5-1.2-3.6.9-5.5-2.1-8.5-6.1-11.5s-3.7-7.2-2.2-12.5c6.7,3.7,12.6,7,18.5,10.3,7.3,4.1,9.5,3,11-5.3.4-2.1.6-4.3.9-6.4.4-2.7.8-5.4,1.4-9.3,2.5,2,4.1,3.1,5.3,4.5,2.8,3.3,5.3,4,8.5.3,2.1-2.5,4.9-4.5,7.5-6.6,5.9-4.9,9.8-3.6,11.5,4.1.9,4.2,1.6,8.5,1.9,12.8,1,14.1,1.8,28.1,2.7,42.2.7-1.5.9-3,.9-4.6,0-6.3-.5-12.7-.3-19,.4-18.6,1.2-37.3,1.4-55.9,0-3.9-.8-9-3.3-11.6-6.4-6.9-13.3-13.7-21.2-18.8-22.5-14.5-46.1-27.3-71.5-36.2-4.2-1.5-7.8-4.2-11.7-6.4-3.1-1.7-3.3-4.2-1.9-7.2,2.4-5.1,5-10.1,6.9-15.4,4.2-11.1,8.1-22.4,12.1-33.8,21.2,4.9,36.2,20.8,53.6,33.9-.6-1.6-.7-2.8-1.4-3.6-5.6-7.7-10.6-15.9-17-22.8-14.3-15.3-45.5-31.6-66.2-35.6-4.4-.8-8.9-.7-13.4-1.2-12.5-1.6-23.8-.3-34.2,8.4-6.8,5.7-13.2,11.5-18.5,18.7-11.6,15.9-18.3,33.9-22.8,52.8-1.3,5.5-4,6.9-9.2,7.4-24.8,2.3-49.7,4.5-74.4,8.1-13.2,1.9-26,6.7-39,10.1-1.5.4-3.3.6-4.8.2-9.2-2.4-18.2-5.2-27.4-7.4-14.9-3.5-29.9-6.6-44.8-9.8-5.5-1.2-8.5-4.1-7.2-7.6,3.9-10.9,4.3-22.8,9.2-33.5.9-2,.8-4.6.8-6.9,0-8.6-.2-17.2-.5-25.8,0-2.1-.3-4.7-1.5-6-1.4-1.4-4.5-2.7-6.2-2.2-3.5,1.2-6.4,3.9-10.6,2.6-.8-.2-2.9,1.8-3.3,3.1-1.9,5.8-4.1,11.6-5.1,17.6-1.2,7.4-1,15-1.8,22.4-.2,1.4-1.9,3.6-3.2,3.8-4.1.5-5.4,2.6-5.1,6.4,0,1.5,0,3,0,4.5-1,7.7-1,15.3-9.3,20.5-7.9,5-10.1,22.5-5.4,30.8.5.9,1,1.8,1.8,2.3,3.2,1.9,3.2,4.7,2.9,7.8-.6,5.5-3.3,9.4-8.4,11.4-5.2,2.1-8,6-8.5,11.4-.7,7.6-1.3,15.2-1.4,22.8,0,6.8,3.1,11.3,10.3,12.4,3.8.6,4.7,3.2,5.1,6.8.7,6.5,1.2,13.3,3.4,19.4,3.3,9,3.3,16.6-3.4,23.9-2.4,2.7-4.2,6-6.2,9-3.3,4.8-6.4,9.7-10.1,14.2-1.3,1.5-4,2.8-5.9,2.7-9.3-.7-16.8,3.3-23.6,8.7-8,6.3-14.4,14.9-25.3,16.9-.6,0-1.2.6-1.8.9-11.6,5.6-20.1,15.1-29.4,23.8-1.5,1.4-2.4,3.6-3.8,5.2-2,2.2-4,4.5-6.4,6.2-10.6,7.1-21.6,13.6-31.9,21.2-3,2.2-5.4,3.6-9.1,3.9-11.5.9-22.5,3.3-30.1,13.2-7.5,9.9-15,19.8-22.4,29.6-.7.9-1.3,1.9-2.2,2.5-7.4,5.4-15.1,10.4-22.1,16.2-5,4.1-9.5,8.3-15.6,11s-11,8.1-17,11.3c-5.4,2.9-9,7.3-10.7,12.6s-5.2,8.2-9.2,11.1c-1.6,1.2-3.3,2.3-4.9,3.5-6.7,5.1-10.1,12.4-12,22.2ZM349.9,1147.4v12.8c0,1.1.2,2.5-.4,3.3-2.2,2.9-1.2,5.1.6,7.7,1,1.5,1.1,3.7,1.8,5.5.7,2,1.4,4,2.3,5.9,1.1,2.3,2.5,4.5,3.7,6.8,2.7,5,5.4,10,8.2,15,1.5,2.6,2.7,5.5,4.8,7.6,8.8,8.8,20.3,11.8,31.9,13.9,15.9,2.9,31.8,5.2,47.7,8,13.9,2.4,27.7,5.7,41.7,7.7,19.3,2.8,38.6,4.9,58,7.2,14.4,1.7,28.7,3.5,43.1,4.9,13.4,1.3,26.8,2.1,40.2,3,16.4,1.1,32.8,2.6,49.3,3.2,23.9,1,47.9.9,71.8,2.1,37,1.9,74,5.5,111.1,6.4,57.8,1.4,115.7,1.5,173.6,1.6,48.3,0,96.5-1.4,144.3-9.4,48.4-8.1,96.9-16,145.4-23.8,26.5-4.2,52.7-9.8,78.3-17.7,11.5-3.5,17-14.8,13.5-27.4-3.7,1.5-7.2,3.6-10.9,4.5-26.2,6.1-52.4,12.9-78.8,17.6-38.8,6.9-77.9,11.9-116.9,18.2-13.9,2.2-27.5,6.1-41.3,8.6-10.6,1.9-21.3,3.2-32.1,3.9-18.6,1.2-37.2,2.5-55.7,2.2-30-.5-60-2.3-90-3.7-14.3-.6-28.5-1.5-42.8-2.2-12.1-.6-24.3-.5-36.3-1.9-13.3-1.6-26.6-4.4-39.7-7.3-38.2-8.4-76.4-16.4-115.1-22.2-38.7-5.8-77.4-11.6-116.4-14.3-16.3-1.1-32.7-1.3-48.8-3.5-45.5-6.3-90.9-12.9-136.2-20.6-34.6-5.9-69.2-11.9-102.8-22.2-2-.7-3.8-.9-7.1-1.4ZM1375.5,810h-1.1c-.9,3.5-2,7-2.8,10.6-2.2,10.4-6.8,19.7-14,27.2-9.3,9.5-18.7,19.1-29.4,26.9-21.3,15.7-43.3,30.4-65.4,45-12.1,8-24.7,15.2-37.5,21.9-12.5,6.5-24.5,3-32.1-8.8-3.7-5.8-7-12.1-9.4-18.6-8.3-21.7-12.8-44.3-15.6-67.4-.2-1.3-1.1-2.5-1.7-3.7-1.2.7-3,1.1-3.6,2.1-3.5,5.8-7.5,11.5-9.9,17.7-12.1,30.9-17.3,62.8-13.6,95.9,1.9,17.5,5.6,34.5,14.8,49.8,14.9,24.6,40.3,27,59.4,15.2,15.2-9.3,30.5-18.6,44.4-29.6,21.1-16.6,41-34.6,61.4-52,1.3-1.1,2.7-2.2,4.2-3.3.3.7.5,1,.5,1.3-1.7,28.8-3.3,57.5-5.1,86.3-1.4,21.6-4.5,43-9.7,64.1-1.8,7.2-.9,8.3,6.6,6.6.8-.2,1.6-.3,2.4-.5,16-4.6,31.9-9.2,47.9-13.7,10.7-3,21.5-5.8,32.2-9,7-2.1,7.9-4.1,7.2-11.5-.2-2.3-.3-4.6-.5-7-1-16.1-1.1-32.3-3.2-48.3-2.7-21.6-7-43-10.5-64.5-2.6-16.1-5.1-32.2-7.6-48.3-1-6.4-2.1-12.8-2.5-19.2-.5-8.5-.3-17-.5-25.4,0-1.6-.3-3.6-1.3-4.7-5.6-6.5-5-14.1-4.3-21.8.6-4.5.3-8.9.3-13.3Z"/>
        <path d="M611.2,948.4c2-9.8,5.3-17,12.3-22.4,1.6-1.2,3.3-2.3,4.9-3.5,4-2.9,7.5-5.8,9.2-11.1s5.2-9.7,10.7-12.6c6-3.2,10.9-8.6,17-11.3s10.6-7,15.6-11c7.1-5.8,14.7-10.8,22.1-16.2.9-.6,1.5-1.6,2.2-2.5,7.5-9.9,14.9-19.8,22.4-29.6,7.6-9.9,18.6-12.3,30.1-13.2,3.7-.3,6.1-1.7,9.1-3.9,10.3-7.5,21.3-14,31.9-21.2,2.4-1.6,4.4-4,6.4-6.2,1.4-1.6,2.3-3.7,3.8-5.2,9.2-8.6,17.7-18.1,29.4-23.8.6-.3,1.1-.8,1.8-.9,10.9-2,17.3-10.6,25.3-16.9,6.8-5.4,14.3-9.4,23.6-8.7,1.9,0,4.7-1.2,5.9-2.7,3.7-4.5,6.8-9.4,10.1-14.2,2.1-3,3.8-6.3,6.2-9,6.7-7.3,6.7-15,3.4-23.9-2.3-6.1-2.8-12.9-3.4-19.4-.4-3.6-1.3-6.3-5.1-6.8-7.2-1.1-10.4-5.6-10.3-12.4,0-7.6.7-15.3,1.4-22.8.5-5.3,3.4-9.3,8.5-11.4,5.1-2.1,7.8-6,8.4-11.4.3-3.2.3-6-2.9-7.8-.8-.5-1.4-1.5-1.8-2.3-4.7-8.3-2.5-25.8,5.4-30.8,8.2-5.2,8.3-12.7,9.3-20.5.2-1.5.2-3,0-4.5-.3-3.8,1-5.9,5.1-6.4,1.2-.2,3-2.4,3.2-3.8.8-7.4.7-15,1.8-22.4.9-6,3.1-11.8,5.1-17.6.5-1.3,2.6-3.4,3.3-3.1,4.3,1.3,7.1-1.4,10.6-2.6,1.7-.6,4.7.7,6.2,2.2s1.5,3.9,1.5,6c.3,8.6.4,17.2.5,25.8,0,2.3,0,4.9-.8,6.9-4.8,10.7-5.3,22.5-9.2,33.5-1.2,3.5,1.7,6.4,7.2,7.6,15,3.2,29.9,6.3,44.8,9.8,9.2,2.2,18.3,5,27.4,7.4,1.5.4,3.3.2,4.8-.2,13-3.4,25.8-8.2,39-10.1,24.7-3.6,49.6-5.7,74.4-8.1,5.2-.5,7.9-1.8,9.2-7.4,4.5-18.9,11.2-36.9,22.8-52.8,5.3-7.2,11.7-12.9,18.5-18.7,10.3-8.7,21.7-10,34.2-8.4,4.4.6,9,.4,13.4,1.2,20.7,3.9,51.9,20.3,66.2,35.6,6.4,6.9,11.4,15.1,17,22.8.6.8.8,2,1.4,3.6-17.5-13.1-32.4-28.9-53.6-33.9-4.1,11.4-7.9,22.6-12.1,33.8-2,5.3-4.6,10.3-6.9,15.4-1.4,3-1.2,5.4,1.9,7.2,3.9,2.2,7.6,5,11.7,6.4,25.5,8.9,49,21.7,71.5,36.2,7.9,5.1,14.8,11.9,21.2,18.8,2.5,2.6,3.4,7.7,3.3,11.6-.2,18.6-1,37.3-1.4,55.9,0,6.3.3,12.7.3,19s-.2,3.1-.9,4.6c-.9-14.1-1.7-28.1-2.7-42.2-.3-4.3-1-8.6-1.9-12.8-1.7-7.7-5.6-9-11.5-4.1-2.6,2.1-5.3,4.1-7.5,6.6-3.2,3.8-5.7,3-8.5-.3-1.2-1.4-2.8-2.4-5.3-4.5-.6,3.9-1,6.6-1.4,9.3-.3,2.1-.5,4.3-.9,6.4-1.5,8.3-3.7,9.3-11,5.3-5.9-3.3-11.8-6.6-18.5-10.3-1.5,5.3-1.8,9.6,2.2,12.5,4,3,7,6,6.1,11.5-.2,1.1.4,2.9,1.2,3.6,4.2,3.5,5.6,7.9,6.5,13.2.5,2.8,3.2,5.1,4.9,7.7.2.3.6.4.7.7,2.2,6,4.1,12.2,6.8,18,1.9,4,4.8,7.6,7.3,11.3.6.9,1.4,1.5,2.1,2.4,2,2.8,2.2,7.2,7,7.5.7,0,1,2.4,1.9,3.2,1.3,1.2,3,2.1,4.7,3,1.2.6,2.8.5,3.9,1.2,2.7,1.8,3.9.9,5.3-1.8,1.7-3.2,4.6-5.8,6.4-9,1.3-2.3,1.6-5.1,2.3-7.7.4,0,.8,0,1.2,0,.3,5,.4,10,1,15,.7,6.4,1.9,12.8,2.7,19.2.3,2.6.8,5.5,0,7.8-4.8,12.2-9.5,24.5-20.9,32.7-6.5,4.6-13.4,7.2-21.1,8.1-3.6.5-4-1.8-4.3-4.6-.6-6.9-.9-14-2.2-20.8-2.4-12.8-9.2-23.4-17.8-33-14.6-16.1-32.1-28.2-51.3-38.5-10.7-5.7-20.6-12.9-30.8-19.4-2.4-1.5-4.8-2.8-8.7-5.1,0,8.2-.5,15.3,0,22.2,1,10.9,2.3,21.9,4.4,32.6,2.7,13.7-.8,26.1-6.1,38.3-5.3,12-16,16.1-28.2,17.4-12.9,1.4-25.8,3.2-38.7,4.6-16.1,1.8-28.1,9.5-35.4,24.1-7.8,15.6-15.8,31.1-23.2,47-5.3,11.4-12.9,19.5-25.4,22.7-7.5,2-14.8,5-22.3,7.1-3.2.9-4.1,2.5-3.4,5.3.9,3.4,1.8,6.8,3.2,9.9,16.7,36.2,37.1,70.3,57.7,104.3,10.9,18.1,21.2,36.7,29.7,56,6.9,15.6,10.7,32.5,15.9,48.8,1.3,4-2,4.5-4.5,5-12.5,2.5-25.1,5-37.7,7.2-36,6.4-72.3,4.6-108.6,4.5-43,0-86,1.1-128.9.3-34.8-.6-69.6-2.5-104.2-5.4-56.2-4.8-112.5-9.7-168.4-16.7-47.4-5.9-94.4-14.5-141.5-22.2-17.6-2.8-35.1-6-52.5-9.5-16.4-3.4-14.9-3.6-9.8-17.2,10.6-28.2,29.5-50.5,50.8-71.4,8.7-8.5,16.7-9.1,27.8-7,29.4,5.4,59.1,9.7,88.8,13.5,30.2,3.9,60.5,6.8,90.9,9.6,12.6,1.2,25.3,1.3,37.9,1.3,28,0,56-.4,83.9-1,19.8-.4,39.6-1.4,59.4-1.7,19.4-.2,36.9,5.8,52.8,16.9,9.8,6.9,20.1,13.1,30.1,19.5,1.1.7,2.4,1.2,3.6,1.7,12.9,4.9,19.9-1,18.6-14.7-1.3-13.3-9.5-22.5-17.2-32-8.6-10.6-19-19.7-30.4-27.2-9-5.9-18.7-10.8-28-16.2-11-6.4-20.7-14.5-29.4-23.8-4.5-4.7-7.1-10.1-6.7-16.6.2-3-1.1-4.5-3.4-5.9-25-15.7-52-25.5-81.7-26-10.4-.2-21,.3-31.1,2.5-8.3,1.8-16.1,6.3-23.7,10.2-17.2,9-34,18.5-51.2,27.5-5.2,2.8-10.8,4.2-17.4,6.6ZM1043.2,712.3c-1.5-3.7-3.6-7.9-5-12.3-1.2-3.9-1.8-8.1-2.5-12.2-.6-3.3-2.3-5.1-5.4-6.4-7.9-3.1-15.6-6.6-23.5-9.6-2.6-1-5.4-1.7-8.2-1.7-18.3-.3-36,3-52.7,10.6-7.1,3.2-10.6,9.1-11.9,16.6-1,5.8.8,12.5-5.5,16.6-.5.3-.3,1.5-.5,2.5.9.2,1.6.4,2.2.3,14.2-.6,27.9,1.3,40.5,8.2.9.5,2.2.5,3.4.6,11.1.4,21.6,2.7,32,6.8,14,5.5,28.3,10.5,42.5,15.7,1-1.2,1.9-2.2,2.7-3.2,4.5-5.7,4.3-7.1-2.3-10.3-5.5-2.7-11.2-5.1-16.9-7.4-9-3.6-18.1-7-27.2-10.5,3.4-6,14.1-7.2,38.3-4.3ZM841.6,786.8c10.6,1.1,20.2,1.8,29.7,3.2,5.7.8,11.2,3,16.9,4,15.7,2.8,31.5,5,47.1,8.2,6.2,1.2,12,4.3,19.1,6.9-1.8-2.8-3-4.9-4.3-6.9-6.6-9.8-17-14.8-26.9-19.9-6.5-3.4-14-6-21.2-6.7-12.9-1.1-26-.9-38.7,2.5-7.2,2-14.6,3.8-21.7,8.7ZM1139.6,691.3c-2.6-4.5-4.8-8.4-7-12.3-2.8-5-6.2-9.8-8.3-15-2.5-6.2-11.6-13.8-18.3-13.3-12.5,1.1-24.9,2.7-38.1,4.1,24.1,12.3,47.2,24.1,71.7,36.5ZM797.8,821.5c1.1.6,88.7,13.5,89.3,13.3-8.8-8.9-18.2-17.3-30.7-18.3-14-1.1-28.2,0-42.3.8-5.2.3-10.4,2.6-16.3,4.2ZM904,744.2c0,.4,0,.9,0,1.3,8.4,1.8,16.7,4.5,25.2,5.3,16.4,1.6,33,.8,49.7,6.2-23.3-17.5-48.7-17.5-74.8-12.8ZM831,861.2c-13.3-4.5-26.6-8.5-40.7-3,13.3,5.5,27,3.9,40.7,3ZM726.4,852.6c0-.5.3-1.1.4-1.6-2-1-4.5-3.3-5.9-2.7-2.7,1.1-4.7,3.7-7,5.7.3.5.6,1,1,1.5,3.9-1,7.7-1.9,11.5-2.9Z"/>
        <path d="M349.9,1147.4c3.3.6,5.1.7,6.7,1.2,33.7,10.3,68.3,16.3,102.8,22.2,45.3,7.7,90.7,14.3,136.2,20.6,16.1,2.2,32.5,2.4,48.8,3.5,39.1,2.7,77.7,8.5,116.4,14.3s76.9,13.8,115.1,22.2c13.1,2.9,26.4,5.7,39.7,7.3,12,1.5,24.2,1.3,36.3,1.9,14.3.7,28.5,1.6,42.8,2.2,30,1.3,60,3.1,90,3.7,18.6.3,37.2-1,55.7-2.2,10.7-.7,21.5-2,32.1-3.9,13.9-2.5,27.5-6.3,41.3-8.6,38.9-6.3,78.1-11.4,116.9-18.2,26.5-4.7,52.6-11.5,78.8-17.6,3.8-.9,7.3-2.9,10.9-4.5,3.5,12.5-2,23.8-13.5,27.4-25.7,7.9-51.8,13.5-78.3,17.7-48.5,7.8-97,15.6-145.4,23.8-47.8,8-96,9.5-144.3,9.4-57.9-.2-115.7-.2-173.6-1.6-37-.9-74-4.5-111.1-6.4-23.9-1.2-47.9-1.1-71.8-2.1-16.4-.7-32.9-2.1-49.3-3.2-13.4-.9-26.8-1.8-40.2-3-14.4-1.4-28.8-3.2-43.1-4.9-19.3-2.3-38.7-4.4-58-7.2-14-2-27.7-5.3-41.7-7.7-15.9-2.8-31.8-5.1-47.7-8-11.7-2.1-23.2-5.1-31.9-13.9-2.1-2.1-3.3-5-4.8-7.6-2.8-5-5.4-10-8.2-15-1.2-2.3-2.6-4.5-3.7-6.8-.9-1.9-1.6-3.9-2.3-5.9-.6-1.8-.7-4-1.8-5.5-1.7-2.6-2.8-4.8-.6-7.7.6-.7.4-2.2.4-3.3.4-3.8.4-7.8.4-12.6Z"/>
        <path d="M1375.5,810c0,4.4.3,8.8,0,13.2-.7,7.8-1.3,15.3,4.3,21.8,1,1.1,1.2,3.1,1.3,4.7.2,8.5,0,17,.5,25.4.4,6.4,1.5,12.8,2.5,19.2,2.5,16.1,4.9,32.2,7.6,48.3,3.5,21.5,7.7,42.9,10.5,64.5,2,16,2.2,32.2,3.2,48.3,0,2.3.2,4.7.5,7,.8,7.4,0,9.3-7.2,11.5-10.6,3.2-21.4,6-32.2,9-16,4.5-32,9.1-47.9,13.7-.8.2-1.6.3-2.4.5-7.5,1.6-8.3.5-6.6-6.6,5.2-21.1,8.3-42.5,9.7-64.1,1.8-28.8,3.4-57.5,5.1-86.3,0-.3-.2-.5-.5-1.3-1.5,1.2-2.9,2.2-4.2,3.3-20.4,17.4-40.3,35.4-61.4,52-13.9,11-29.2,20.3-44.4,29.6-19.2,11.8-44.5,9.4-59.4-15.2-9.3-15.3-12.9-32.3-14.8-49.8-3.7-33.2,1.5-65.1,13.6-95.9,2.5-6.2,6.4-11.9,9.9-17.7.6-1.1,2.4-1.4,3.6-2.1.6,1.2,1.6,2.4,1.7,3.7,2.8,23,7.4,45.7,15.6,67.4,2.5,6.5,5.7,12.8,9.4,18.6,7.5,11.8,19.6,15.3,32.1,8.8,12.8-6.7,25.4-13.9,37.5-21.9,22.1-14.6,44.1-29.3,65.4-45,10.6-7.8,20.1-17.4,29.4-26.9,7.3-7.5,11.9-16.8,14-27.2.7-3.6,1.8-7,2.8-10.6,0,.1.5.1.9.1Z"/>
        <path class="cls-1" d="M1043.2,712.3c-24.3-2.9-34.9-1.7-38.5,4.4,9.1,3.5,18.2,6.9,27.2,10.5,5.7,2.3,11.4,4.7,16.9,7.4,6.7,3.3,6.8,4.6,2.3,10.3-.8,1-1.7,2-2.7,3.2-14.2-5.2-28.5-10.2-42.5-15.7-10.3-4.1-20.9-6.4-32-6.8-1.1,0-2.4,0-3.4-.6-12.7-6.9-26.3-8.9-40.5-8.2-.6,0-1.2-.2-2.2-.3.2-1,0-2.2.5-2.5,6.3-4.1,4.5-10.8,5.5-16.6,1.3-7.5,4.8-13.4,11.9-16.6,16.7-7.6,34.4-10.9,52.7-10.6,2.7,0,5.6.7,8.2,1.7,7.9,3.1,15.6,6.6,23.5,9.6,3.1,1.2,4.9,3.1,5.4,6.4.7,4.1,1.3,8.3,2.5,12.2,1.7,4.3,3.7,8.6,5.2,12.2Z"/>
        <path class="cls-1" d="M841.6,786.8c7.1-5,14.4-6.7,21.7-8.7,12.7-3.4,25.8-3.6,38.7-2.5,7.2.6,14.7,3.3,21.2,6.7,9.9,5.1,20.3,10,26.9,19.9,1.3,2,2.5,4,4.3,6.9-7.1-2.6-12.9-5.7-19.1-6.9-15.6-3.1-31.4-5.4-47.1-8.2-5.7-1-11.2-3.2-16.9-4-9.5-1.3-19.1-2.1-29.7-3.2Z"/>
        <path class="cls-1" d="M1139.6,691.3c-24.5-12.5-47.7-24.3-71.7-36.5,13.2-1.5,25.6-3.1,38.1-4.1,6.6-.6,15.7,7.1,18.3,13.3,2.1,5.3,5.5,10,8.3,15,2.2,3.9,4.5,7.8,7,12.3Z"/>
        <path class="cls-1" d="M797.8,821.5c6-1.6,11.1-3.9,16.3-4.2,14.1-.8,28.3-2,42.3-.8,12.5,1,21.9,9.4,30.7,18.3-.6.2-88.2-12.7-89.3-13.3Z"/>
        <path class="cls-1" d="M904,744.2c26.1-4.8,51.4-4.7,74.7,12.9-16.7-5.4-33.3-4.6-49.7-6.2-8.5-.8-16.8-3.5-25.2-5.3.2-.5.2-.9.2-1.4Z"/>
        <path class="cls-1" d="M831,861.2c-13.7.9-27.4,2.5-40.7-3,14-5.4,27.3-1.5,40.7,3Z"/>
        <path class="cls-1" d="M726.4,852.6c-3.8,1-7.6,1.9-11.5,2.9-.3-.5-.6-1-1-1.5,2.3-2,4.3-4.7,7-5.7,1.4-.6,3.9,1.7,5.9,2.7-.1.5-.2,1.1-.4,1.6Z"/>
      </g>
    </g>
  </g>
</svg>