<?xml version="1.0" encoding="utf-8"?>
<!-- Generator: Adobe Illustrator 25.4.1, SVG Export Plug-In . SVG Version: 6.00 Build 0)  -->
<svg version="1.1" id="Camada_1" xmlns="http://www.w3.org/2000/svg" xmlns:xlink="http://www.w3.org/1999/xlink" x="0px" y="0px"
	 viewBox="0 0 1800 1800" style="enable-background:new 0 0 1800 1800;" xml:space="preserve">
<style type="text/css">
	.st0{fill:#FFFFFF00;}
</style>
<g>
	<path class="st0" d="M-58.3,1860c0-640,0-1280,0-1920c640,0,1280,0,1920,0c0,640,0,1280,0,1920C1221.7,1860,581.7,1860-58.3,1860z
		 M611.2,948.4c6.6-2.4,12.2-3.8,17.1-6.4c17.2-9,34-18.5,51.2-27.5c7.6-4,15.4-8.4,23.7-10.2c10.1-2.2,20.7-2.7,31.1-2.5
		c29.7,0.5,56.7,10.3,81.7,26c2.3,1.4,3.6,2.9,3.4,5.9c-0.3,6.5,2.3,11.9,6.7,16.6c8.8,9.2,18.4,17.4,29.4,23.8
		c9.4,5.4,19,10.4,28,16.2c11.5,7.5,21.9,16.5,30.4,27.2c7.6,9.5,15.9,18.8,17.2,32c1.3,13.7-5.6,19.6-18.6,14.7
		c-1.2-0.5-2.5-1-3.6-1.7c-10.1-6.5-20.3-12.7-30.1-19.5c-15.9-11.1-33.4-17.2-52.8-16.9c-19.8,0.3-39.6,1.3-59.4,1.7
		c-28,0.5-56,0.9-83.9,1c-12.6,0-25.4-0.1-37.9-1.3c-30.3-2.8-60.6-5.8-90.9-9.6c-29.7-3.8-59.4-8.1-88.8-13.5
		c-11.1-2-19.1-1.5-27.8,7c-21.3,20.9-40.2,43.2-50.8,71.4c-5.1,13.6-6.7,13.8,9.8,17.2c17.4,3.6,35,6.7,52.5,9.5
		c47.1,7.6,94.1,16.3,141.5,22.2c56,6.9,112.2,11.9,168.4,16.7c34.7,2.9,69.5,4.8,104.2,5.4c43,0.8,85.9-0.5,128.9-0.3
		c36.3,0.1,72.6,1.9,108.6-4.5c12.6-2.2,25.2-4.7,37.7-7.2c2.4-0.5,5.7-1,4.5-5c-5.1-16.3-9-33.2-15.9-48.8
		c-8.5-19.3-18.8-37.9-29.7-56c-20.6-34-41-68.1-57.7-104.3c-1.4-3.1-2.3-6.5-3.2-9.9c-0.7-2.8,0.2-4.4,3.4-5.3
		c7.5-2.1,14.8-5.1,22.3-7.1c12.5-3.2,20.1-11.3,25.4-22.7c7.4-15.8,15.4-31.4,23.2-47c7.3-14.6,19.3-22.3,35.4-24.1
		c12.9-1.4,25.8-3.2,38.7-4.6c12.2-1.3,22.9-5.4,28.2-17.4c5.4-12.1,8.8-24.6,6.1-38.3c-2.1-10.8-3.4-21.7-4.4-32.6
		c-0.6-7-0.1-14-0.1-22.2c3.9,2.3,6.4,3.6,8.7,5.1c10.3,6.5,20.2,13.7,30.8,19.4c19.1,10.2,36.7,22.3,51.3,38.5
		c8.6,9.5,15.4,20.2,17.8,33c1.3,6.8,1.6,13.8,2.2,20.8c0.2,2.8,0.6,5,4.3,4.6c7.7-1,14.6-3.5,21.1-8.1
		c11.4-8.2,16.1-20.4,20.9-32.7c0.9-2.3,0.4-5.2,0.1-7.8c-0.8-6.4-2-12.8-2.7-19.2c-0.6-5-0.7-10-1-15c-0.4,0-0.8,0-1.2-0.1
		c-0.7,2.6-1,5.4-2.3,7.7c-1.8,3.2-4.7,5.8-6.4,9c-1.4,2.7-2.6,3.6-5.3,1.8c-1.1-0.7-2.7-0.6-3.9-1.2c-1.7-0.8-3.3-1.7-4.7-3
		c-0.9-0.8-1.2-3.2-1.9-3.2c-4.9-0.3-5-4.7-7-7.5c-0.6-0.9-1.5-1.5-2.1-2.4c-2.5-3.7-5.5-7.3-7.3-11.3c-2.7-5.8-4.6-12-6.8-18
		c-0.1-0.3-0.5-0.4-0.7-0.7c-1.7-2.5-4.5-4.9-4.9-7.7c-0.9-5.2-2.2-9.7-6.5-13.2c-0.9-0.7-1.4-2.5-1.2-3.6c0.9-5.5-2.1-8.5-6.1-11.5
		c-4-3-3.7-7.2-2.2-12.5c6.7,3.7,12.6,7,18.5,10.3c7.3,4.1,9.5,3,11-5.3c0.4-2.1,0.6-4.3,0.9-6.4c0.4-2.7,0.8-5.4,1.4-9.3
		c2.5,2,4.1,3.1,5.3,4.5c2.8,3.3,5.3,4,8.5,0.3c2.1-2.5,4.9-4.5,7.5-6.6c5.9-4.9,9.8-3.6,11.5,4.1c0.9,4.2,1.6,8.5,1.9,12.8
		c1,14.1,1.8,28.1,2.7,42.2c0.7-1.5,0.9-3,0.9-4.6c-0.1-6.3-0.5-12.7-0.3-19c0.4-18.6,1.2-37.3,1.4-55.9c0-3.9-0.8-9-3.3-11.6
		c-6.4-6.9-13.3-13.7-21.2-18.8c-22.5-14.5-46.1-27.3-71.5-36.2c-4.2-1.5-7.8-4.2-11.7-6.4c-3.1-1.7-3.3-4.2-1.9-7.2
		c2.4-5.1,5-10.1,6.9-15.4c4.2-11.1,8.1-22.4,12.1-33.8c21.2,4.9,36.2,20.8,53.6,33.9c-0.6-1.6-0.7-2.8-1.4-3.6
		c-5.6-7.7-10.6-15.9-17-22.8c-14.3-15.3-45.5-31.6-66.2-35.6c-4.4-0.8-8.9-0.7-13.4-1.2c-12.5-1.6-23.8-0.3-34.2,8.4
		c-6.8,5.7-13.2,11.5-18.5,18.7c-11.6,15.9-18.3,33.9-22.8,52.8c-1.3,5.5-4,6.9-9.2,7.4c-24.8,2.3-49.7,4.5-74.4,8.1
		c-13.2,1.9-26,6.7-39,10.1c-1.5,0.4-3.3,0.6-4.8,0.2c-9.2-2.4-18.2-5.2-27.4-7.4c-14.9-3.5-29.9-6.6-44.8-9.8
		c-5.5-1.2-8.5-4.1-7.2-7.6c3.9-10.9,4.3-22.8,9.2-33.5c0.9-2,0.8-4.6,0.8-6.9c0-8.6-0.2-17.2-0.5-25.8c-0.1-2.1-0.3-4.7-1.5-6
		c-1.4-1.4-4.5-2.7-6.2-2.2c-3.5,1.2-6.4,3.9-10.6,2.6c-0.8-0.2-2.9,1.8-3.3,3.1c-1.9,5.8-4.1,11.6-5.1,17.6c-1.2,7.4-1,15-1.8,22.4
		c-0.2,1.4-1.9,3.6-3.2,3.8c-4.1,0.5-5.4,2.6-5.1,6.4c0.1,1.5,0.1,3-0.1,4.5c-1,7.7-1,15.3-9.3,20.5c-7.9,5-10.1,22.5-5.4,30.8
		c0.5,0.9,1,1.8,1.8,2.3c3.2,1.9,3.2,4.7,2.9,7.8c-0.6,5.5-3.3,9.4-8.4,11.4c-5.2,2.1-8,6-8.5,11.4c-0.7,7.6-1.3,15.2-1.4,22.8
		c-0.1,6.8,3.1,11.3,10.3,12.4c3.8,0.6,4.7,3.2,5.1,6.8c0.7,6.5,1.2,13.3,3.4,19.4c3.3,9,3.3,16.6-3.4,23.9c-2.4,2.7-4.2,6-6.2,9
		c-3.3,4.8-6.4,9.7-10.1,14.2c-1.3,1.5-4,2.8-5.9,2.7c-9.3-0.7-16.8,3.3-23.6,8.7c-8,6.3-14.4,14.9-25.3,16.9
		c-0.6,0.1-1.2,0.6-1.8,0.9c-11.6,5.6-20.1,15.1-29.4,23.8c-1.5,1.4-2.4,3.6-3.8,5.2c-2,2.2-4,4.5-6.4,6.2
		c-10.6,7.1-21.6,13.6-31.9,21.2c-3,2.2-5.4,3.6-9.1,3.9c-11.5,0.9-22.5,3.3-30.1,13.2c-7.5,9.9-15,19.8-22.4,29.6
		c-0.7,0.9-1.3,1.9-2.2,2.5c-7.4,5.4-15.1,10.4-22.1,16.2c-5,4.1-9.5,8.3-15.6,11c-6.1,2.7-11,8.1-17,11.3c-5.4,2.9-9,7.3-10.7,12.6
		c-1.7,5.3-5.2,8.2-9.2,11.1c-1.6,1.2-3.3,2.3-4.9,3.5C616.5,931.3,613.1,938.6,611.2,948.4z M349.9,1147.4c0,4.8,0,8.8,0,12.8
		c0,1.1,0.2,2.5-0.4,3.3c-2.2,2.9-1.2,5.1,0.6,7.7c1,1.5,1.1,3.7,1.8,5.5c0.7,2,1.4,4,2.3,5.9c1.1,2.3,2.5,4.5,3.7,6.8
		c2.7,5,5.4,10,8.2,15c1.5,2.6,2.7,5.5,4.8,7.6c8.8,8.8,20.3,11.8,31.9,13.9c15.9,2.9,31.8,5.2,47.7,8c13.9,2.4,27.7,5.7,41.7,7.7
		c19.3,2.8,38.6,4.9,58,7.2c14.4,1.7,28.7,3.5,43.1,4.9c13.4,1.3,26.8,2.1,40.2,3c16.4,1.1,32.8,2.6,49.3,3.2
		c23.9,1,47.9,0.9,71.8,2.1c37,1.9,74,5.5,111.1,6.4c57.8,1.4,115.7,1.5,173.6,1.6c48.3,0.1,96.5-1.4,144.3-9.4
		c48.4-8.1,96.9-16,145.4-23.8c26.5-4.2,52.7-9.8,78.3-17.7c11.5-3.5,17-14.8,13.5-27.4c-3.7,1.5-7.2,3.6-10.9,4.5
		c-26.2,6.1-52.4,12.9-78.8,17.6c-38.8,6.9-77.9,11.9-116.9,18.2c-13.9,2.2-27.5,6.1-41.3,8.6c-10.6,1.9-21.3,3.2-32.1,3.9
		c-18.6,1.2-37.2,2.5-55.7,2.2c-30-0.5-60-2.3-90-3.7c-14.3-0.6-28.5-1.5-42.8-2.2c-12.1-0.6-24.3-0.5-36.3-1.9
		c-13.3-1.6-26.6-4.4-39.7-7.3c-38.2-8.4-76.4-16.4-115.1-22.2c-38.7-5.8-77.4-11.6-116.4-14.3c-16.3-1.1-32.7-1.3-48.8-3.5
		c-45.5-6.3-90.9-12.9-136.2-20.6c-34.6-5.9-69.2-11.9-102.8-22.2C355,1148.1,353.2,1147.9,349.9,1147.4z M1375.5,810
		c-0.4,0-0.7,0-1.1,0c-0.9,3.5-2,7-2.8,10.6c-2.2,10.4-6.8,19.7-14,27.2c-9.3,9.5-18.7,19.1-29.4,26.9c-21.3,15.7-43.3,30.4-65.4,45
		c-12.1,8-24.7,15.2-37.5,21.9c-12.5,6.5-24.5,3-32.1-8.8c-3.7-5.8-7-12.1-9.4-18.6c-8.3-21.7-12.8-44.3-15.6-67.4
		c-0.2-1.3-1.1-2.5-1.7-3.7c-1.2,0.7-3,1.1-3.6,2.1c-3.5,5.8-7.5,11.5-9.9,17.7c-12.1,30.9-17.3,62.8-13.6,95.9
		c1.9,17.5,5.6,34.5,14.8,49.8c14.9,24.6,40.3,27,59.4,15.2c15.2-9.3,30.5-18.6,44.4-29.6c21.1-16.6,41-34.6,61.4-52
		c1.3-1.1,2.7-2.2,4.2-3.3c0.3,0.7,0.5,1,0.5,1.3c-1.7,28.8-3.3,57.5-5.1,86.3c-1.4,21.6-4.5,43-9.7,64.1c-1.8,7.2-0.9,8.3,6.6,6.6
		c0.8-0.2,1.6-0.3,2.4-0.5c16-4.6,31.9-9.2,47.9-13.7c10.7-3,21.5-5.8,32.2-9c7-2.1,7.9-4.1,7.2-11.5c-0.2-2.3-0.3-4.6-0.5-7
		c-1-16.1-1.1-32.3-3.2-48.3c-2.7-21.6-7-43-10.5-64.5c-2.6-16.1-5.1-32.2-7.6-48.3c-1-6.4-2.1-12.8-2.5-19.2
		c-0.5-8.5-0.3-17-0.5-25.4c0-1.6-0.3-3.6-1.3-4.7c-5.6-6.5-5-14.1-4.3-21.8C1375.8,818.8,1375.5,814.4,1375.5,810z"/>
	<path d="M611.2,948.4c2-9.8,5.3-17,12.3-22.4c1.6-1.2,3.3-2.3,4.9-3.5c4-2.9,7.5-5.8,9.2-11.1c1.7-5.3,5.2-9.7,10.7-12.6
		c6-3.2,10.9-8.6,17-11.3c6.1-2.7,10.6-7,15.6-11c7.1-5.8,14.7-10.8,22.1-16.2c0.9-0.6,1.5-1.6,2.2-2.5c7.5-9.9,14.9-19.8,22.4-29.6
		c7.6-9.9,18.6-12.3,30.1-13.2c3.7-0.3,6.1-1.7,9.1-3.9c10.3-7.5,21.3-14,31.9-21.2c2.4-1.6,4.4-4,6.4-6.2c1.4-1.6,2.3-3.7,3.8-5.2
		c9.2-8.6,17.7-18.1,29.4-23.8c0.6-0.3,1.1-0.8,1.8-0.9c10.9-2,17.3-10.6,25.3-16.9c6.8-5.4,14.3-9.4,23.6-8.7
		c1.9,0.1,4.7-1.2,5.9-2.7c3.7-4.5,6.8-9.4,10.1-14.2c2.1-3,3.8-6.3,6.2-9c6.7-7.3,6.7-15,3.4-23.9c-2.3-6.1-2.8-12.9-3.4-19.4
		c-0.4-3.6-1.3-6.3-5.1-6.8c-7.2-1.1-10.4-5.6-10.3-12.4c0.1-7.6,0.7-15.3,1.4-22.8c0.5-5.3,3.4-9.3,8.5-11.4
		c5.1-2.1,7.8-6,8.4-11.4c0.3-3.2,0.3-6-2.9-7.8c-0.8-0.5-1.4-1.5-1.8-2.3c-4.7-8.3-2.5-25.8,5.4-30.8c8.2-5.2,8.3-12.7,9.3-20.5
		c0.2-1.5,0.2-3,0.1-4.5c-0.3-3.8,1-5.9,5.1-6.4c1.2-0.2,3-2.4,3.2-3.8c0.8-7.4,0.7-15,1.8-22.4c0.9-6,3.1-11.8,5.1-17.6
		c0.5-1.3,2.6-3.4,3.3-3.1c4.3,1.3,7.1-1.4,10.6-2.6c1.7-0.6,4.7,0.7,6.2,2.2c1.3,1.3,1.5,3.9,1.5,6c0.3,8.6,0.4,17.2,0.5,25.8
		c0,2.3,0.1,4.9-0.8,6.9c-4.8,10.7-5.3,22.5-9.2,33.5c-1.2,3.5,1.7,6.4,7.2,7.6c15,3.2,29.9,6.3,44.8,9.8c9.2,2.2,18.3,5,27.4,7.4
		c1.5,0.4,3.3,0.2,4.8-0.2c13-3.4,25.8-8.2,39-10.1c24.7-3.6,49.6-5.7,74.4-8.1c5.2-0.5,7.9-1.8,9.2-7.4
		c4.5-18.9,11.2-36.9,22.8-52.8c5.3-7.2,11.7-12.9,18.5-18.7c10.3-8.7,21.7-10,34.2-8.4c4.4,0.6,9,0.4,13.4,1.2
		c20.7,3.9,51.9,20.3,66.2,35.6c6.4,6.9,11.4,15.1,17,22.8c0.6,0.8,0.8,2,1.4,3.6c-17.5-13.1-32.4-28.9-53.6-33.9
		c-4.1,11.4-7.9,22.6-12.1,33.8c-2,5.3-4.6,10.3-6.9,15.4c-1.4,3-1.2,5.4,1.9,7.2c3.9,2.2,7.6,5,11.7,6.4
		c25.5,8.9,49,21.7,71.5,36.2c7.9,5.1,14.8,11.9,21.2,18.8c2.5,2.6,3.4,7.7,3.3,11.6c-0.2,18.6-1,37.3-1.4,55.9
		c-0.1,6.3,0.3,12.7,0.3,19c0,1.6-0.2,3.1-0.9,4.6c-0.9-14.1-1.7-28.1-2.7-42.2c-0.3-4.3-1-8.6-1.9-12.8c-1.7-7.7-5.6-9-11.5-4.1
		c-2.6,2.1-5.3,4.1-7.5,6.6c-3.2,3.8-5.7,3-8.5-0.3c-1.2-1.4-2.8-2.4-5.3-4.5c-0.6,3.9-1,6.6-1.4,9.3c-0.3,2.1-0.5,4.3-0.9,6.4
		c-1.5,8.3-3.7,9.3-11,5.3c-5.9-3.3-11.8-6.6-18.5-10.3c-1.5,5.3-1.8,9.6,2.2,12.5c4,3,7,6,6.1,11.5c-0.2,1.1,0.4,2.9,1.2,3.6
		c4.2,3.5,5.6,7.9,6.5,13.2c0.5,2.8,3.2,5.1,4.9,7.7c0.2,0.3,0.6,0.4,0.7,0.7c2.2,6,4.1,12.2,6.8,18c1.9,4,4.8,7.6,7.3,11.3
		c0.6,0.9,1.4,1.5,2.1,2.4c2,2.8,2.2,7.2,7,7.5c0.7,0,1,2.4,1.9,3.2c1.3,1.2,3,2.1,4.7,3c1.2,0.6,2.8,0.5,3.9,1.2
		c2.7,1.8,3.9,0.9,5.3-1.8c1.7-3.2,4.6-5.8,6.4-9c1.3-2.3,1.6-5.1,2.3-7.7c0.4,0,0.8,0,1.2,0.1c0.3,5,0.4,10,1,15
		c0.7,6.4,1.9,12.8,2.7,19.2c0.3,2.6,0.8,5.5-0.1,7.8c-4.8,12.2-9.5,24.5-20.9,32.7c-6.5,4.6-13.4,7.2-21.1,8.1
		c-3.6,0.5-4-1.8-4.3-4.6c-0.6-6.9-0.9-14-2.2-20.8c-2.4-12.8-9.2-23.4-17.8-33c-14.6-16.1-32.1-28.2-51.3-38.5
		c-10.7-5.7-20.6-12.9-30.8-19.4c-2.4-1.5-4.8-2.8-8.7-5.1c0,8.2-0.5,15.3,0.1,22.2c1,10.9,2.3,21.9,4.4,32.6
		c2.7,13.7-0.8,26.1-6.1,38.3c-5.3,12-16,16.1-28.2,17.4c-12.9,1.4-25.8,3.2-38.7,4.6c-16.1,1.8-28.1,9.5-35.4,24.1
		c-7.8,15.6-15.8,31.1-23.2,47c-5.3,11.4-12.9,19.5-25.4,22.7c-7.5,2-14.8,5-22.3,7.1c-3.2,0.9-4.1,2.5-3.4,5.3
		c0.9,3.4,1.8,6.8,3.2,9.9c16.7,36.2,37.1,70.3,57.7,104.3c10.9,18.1,21.2,36.7,29.7,56c6.9,15.6,10.7,32.5,15.9,48.8
		c1.3,4-2,4.5-4.5,5c-12.5,2.5-25.1,5-37.7,7.2c-36,6.4-72.3,4.6-108.6,4.5c-43-0.1-86,1.1-128.9,0.3c-34.8-0.6-69.6-2.5-104.2-5.4
		c-56.2-4.8-112.5-9.7-168.4-16.7c-47.4-5.9-94.4-14.5-141.5-22.2c-17.6-2.8-35.1-6-52.5-9.5c-16.4-3.4-14.9-3.6-9.8-17.2
		c10.6-28.2,29.5-50.5,50.8-71.4c8.7-8.5,16.7-9.1,27.8-7c29.4,5.4,59.1,9.7,88.8,13.5c30.2,3.9,60.5,6.8,90.9,9.6
		c12.6,1.2,25.3,1.3,37.9,1.3c28-0.1,56-0.4,83.9-1c19.8-0.4,39.6-1.4,59.4-1.7c19.4-0.2,36.9,5.8,52.8,16.9
		c9.8,6.9,20.1,13.1,30.1,19.5c1.1,0.7,2.4,1.2,3.6,1.7c12.9,4.9,19.9-1,18.6-14.7c-1.3-13.3-9.5-22.5-17.2-32
		c-8.6-10.6-19-19.7-30.4-27.2c-9-5.9-18.7-10.8-28-16.2c-11-6.4-20.7-14.5-29.4-23.8c-4.5-4.7-7.1-10.1-6.7-16.6
		c0.2-3-1.1-4.5-3.4-5.9c-25-15.7-52-25.5-81.7-26c-10.4-0.2-21,0.3-31.1,2.5c-8.3,1.8-16.1,6.3-23.7,10.2
		c-17.2,9-34,18.5-51.2,27.5C623.4,944.6,617.8,946,611.2,948.4z M1043.2,712.3c-1.5-3.7-3.6-7.9-5-12.3c-1.2-3.9-1.8-8.1-2.5-12.2
		c-0.6-3.3-2.3-5.1-5.4-6.4c-7.9-3.1-15.6-6.6-23.5-9.6c-2.6-1-5.4-1.7-8.2-1.7c-18.3-0.3-36,3-52.7,10.6
		c-7.1,3.2-10.6,9.1-11.9,16.6c-1,5.8,0.8,12.5-5.5,16.6c-0.5,0.3-0.3,1.5-0.5,2.5c0.9,0.2,1.6,0.4,2.2,0.3
		c14.2-0.6,27.9,1.3,40.5,8.2c0.9,0.5,2.2,0.5,3.4,0.6c11.1,0.4,21.6,2.7,32,6.8c14,5.5,28.3,10.5,42.5,15.7c1-1.2,1.9-2.2,2.7-3.2
		c4.5-5.7,4.3-7.1-2.3-10.3c-5.5-2.7-11.2-5.1-16.9-7.4c-9-3.6-18.1-7-27.2-10.5C1008.3,710.6,1019,709.4,1043.2,712.3z
		 M841.6,786.8c10.6,1.1,20.2,1.8,29.7,3.2c5.7,0.8,11.2,3,16.9,4c15.7,2.8,31.5,5,47.1,8.2c6.2,1.2,12,4.3,19.1,6.9
		c-1.8-2.8-3-4.9-4.3-6.9c-6.6-9.8-17-14.8-26.9-19.9c-6.5-3.4-14-6-21.2-6.7c-12.9-1.1-26-0.9-38.7,2.5
		C856.1,780.1,848.7,781.9,841.6,786.8z M1139.6,691.3c-2.6-4.5-4.8-8.4-7-12.3c-2.8-5-6.2-9.8-8.3-15c-2.5-6.2-11.6-13.8-18.3-13.3
		c-12.5,1.1-24.9,2.7-38.1,4.1C1092,667.1,1115.1,678.9,1139.6,691.3z M797.8,821.5c1.1,0.6,88.7,13.5,89.3,13.3
		c-8.8-8.9-18.2-17.3-30.7-18.3c-14-1.1-28.2,0-42.3,0.8C808.9,817.6,803.7,819.9,797.8,821.5z M904,744.2c0,0.4-0.1,0.9-0.1,1.3
		c8.4,1.8,16.7,4.5,25.2,5.3c16.4,1.6,33,0.8,49.7,6.2C955.5,739.5,930.1,739.5,904,744.2z M831,861.2c-13.3-4.5-26.6-8.5-40.7-3
		C803.6,863.7,817.3,862.1,831,861.2z M726.4,852.6c0.1-0.5,0.3-1.1,0.4-1.6c-2-1-4.5-3.3-5.9-2.7c-2.7,1.1-4.7,3.7-7,5.7
		c0.3,0.5,0.6,1,1,1.5C718.8,854.5,722.6,853.6,726.4,852.6z"/>
	<path d="M349.9,1147.4c3.3,0.6,5.1,0.7,6.7,1.2c33.7,10.3,68.3,16.3,102.8,22.2c45.3,7.7,90.7,14.3,136.2,20.6
		c16.1,2.2,32.5,2.4,48.8,3.5c39.1,2.7,77.7,8.5,116.4,14.3c38.7,5.8,76.9,13.8,115.1,22.2c13.1,2.9,26.4,5.7,39.7,7.3
		c12,1.5,24.2,1.3,36.3,1.9c14.3,0.7,28.5,1.6,42.8,2.2c30,1.3,60,3.1,90,3.7c18.6,0.3,37.2-1,55.7-2.2c10.7-0.7,21.5-2,32.1-3.9
		c13.9-2.5,27.5-6.3,41.3-8.6c38.9-6.3,78.1-11.4,116.9-18.2c26.5-4.7,52.6-11.5,78.8-17.6c3.8-0.9,7.3-2.9,10.9-4.5
		c3.5,12.5-2,23.8-13.5,27.4c-25.7,7.9-51.8,13.5-78.3,17.7c-48.5,7.8-97,15.6-145.4,23.8c-47.8,8-96,9.5-144.3,9.4
		c-57.9-0.2-115.7-0.2-173.6-1.6c-37-0.9-74-4.5-111.1-6.4c-23.9-1.2-47.9-1.1-71.8-2.1c-16.4-0.7-32.9-2.1-49.3-3.2
		c-13.4-0.9-26.8-1.8-40.2-3c-14.4-1.4-28.8-3.2-43.1-4.9c-19.3-2.3-38.7-4.4-58-7.2c-14-2-27.7-5.3-41.7-7.7
		c-15.9-2.8-31.8-5.1-47.7-8c-11.7-2.1-23.2-5.1-31.9-13.9c-2.1-2.1-3.3-5-4.8-7.6c-2.8-5-5.4-10-8.2-15c-1.2-2.3-2.6-4.5-3.7-6.8
		c-0.9-1.9-1.6-3.9-2.3-5.9c-0.6-1.8-0.7-4-1.8-5.5c-1.7-2.6-2.8-4.8-0.6-7.7c0.6-0.7,0.4-2.2,0.4-3.3
		C349.9,1156.2,349.9,1152.2,349.9,1147.4z"/>
	<path d="M1375.5,810c0,4.4,0.3,8.8-0.1,13.2c-0.7,7.8-1.3,15.3,4.3,21.8c1,1.1,1.2,3.1,1.3,4.7c0.2,8.5,0,17,0.5,25.4
		c0.4,6.4,1.5,12.8,2.5,19.2c2.5,16.1,4.9,32.2,7.6,48.3c3.5,21.5,7.7,42.9,10.5,64.5c2,16,2.2,32.2,3.2,48.3c0.1,2.3,0.2,4.7,0.5,7
		c0.8,7.4-0.1,9.3-7.2,11.5c-10.6,3.2-21.4,6-32.2,9c-16,4.5-32,9.1-47.9,13.7c-0.8,0.2-1.6,0.3-2.4,0.5c-7.5,1.6-8.3,0.5-6.6-6.6
		c5.2-21.1,8.3-42.5,9.7-64.1c1.8-28.8,3.4-57.5,5.1-86.3c0-0.3-0.2-0.5-0.5-1.3c-1.5,1.2-2.9,2.2-4.2,3.3
		c-20.4,17.4-40.3,35.4-61.4,52c-13.9,11-29.2,20.3-44.4,29.6c-19.2,11.8-44.5,9.4-59.4-15.2c-9.3-15.3-12.9-32.3-14.8-49.8
		c-3.7-33.2,1.5-65.1,13.6-95.9c2.5-6.2,6.4-11.9,9.9-17.7c0.6-1.1,2.4-1.4,3.6-2.1c0.6,1.2,1.6,2.4,1.7,3.7
		c2.8,23,7.4,45.7,15.6,67.4c2.5,6.5,5.7,12.8,9.4,18.6c7.5,11.8,19.6,15.3,32.1,8.8c12.8-6.7,25.4-13.9,37.5-21.9
		c22.1-14.6,44.1-29.3,65.4-45c10.6-7.8,20.1-17.4,29.4-26.9c7.3-7.5,11.9-16.8,14-27.2c0.7-3.6,1.8-7,2.8-10.6
		C1374.7,810,1375.1,810,1375.5,810z"/>
	<path class="st0" d="M1043.2,712.3c-24.3-2.9-34.9-1.7-38.5,4.4c9.1,3.5,18.2,6.9,27.2,10.5c5.7,2.3,11.4,4.7,16.9,7.4
		c6.7,3.3,6.8,4.6,2.3,10.3c-0.8,1-1.7,2-2.7,3.2c-14.2-5.2-28.5-10.2-42.5-15.7c-10.3-4.1-20.9-6.4-32-6.8c-1.1,0-2.4,0-3.4-0.6
		c-12.7-6.9-26.3-8.9-40.5-8.2c-0.6,0-1.2-0.2-2.2-0.3c0.2-1,0.1-2.2,0.5-2.5c6.3-4.1,4.5-10.8,5.5-16.6c1.3-7.5,4.8-13.4,11.9-16.6
		c16.7-7.6,34.4-10.9,52.7-10.6c2.7,0,5.6,0.7,8.2,1.7c7.9,3.1,15.6,6.6,23.5,9.6c3.1,1.2,4.9,3.1,5.4,6.4c0.7,4.1,1.3,8.3,2.5,12.2
		C1039.7,704.4,1041.7,708.7,1043.2,712.3z"/>
	<path class="st0" d="M841.6,786.8c7.1-5,14.4-6.7,21.7-8.7c12.7-3.4,25.8-3.6,38.7-2.5c7.2,0.6,14.7,3.3,21.2,6.7
		c9.9,5.1,20.3,10,26.9,19.9c1.3,2,2.5,4,4.3,6.9c-7.1-2.6-12.9-5.7-19.1-6.9c-15.6-3.1-31.4-5.4-47.1-8.2c-5.7-1-11.2-3.2-16.9-4
		C861.8,788.7,852.2,787.9,841.6,786.8z"/>
	<path class="st0" d="M1139.6,691.3c-24.5-12.5-47.7-24.3-71.7-36.5c13.2-1.5,25.6-3.1,38.1-4.1c6.6-0.6,15.7,7.1,18.3,13.3
		c2.1,5.3,5.5,10,8.3,15C1134.8,682.9,1137.1,686.8,1139.6,691.3z"/>
	<path class="st0" d="M797.8,821.5c6-1.6,11.1-3.9,16.3-4.2c14.1-0.8,28.3-2,42.3-0.8c12.5,1,21.9,9.4,30.7,18.3
		C886.5,835,798.9,822.1,797.8,821.5z"/>
	<path class="st0" d="M904,744.2c26.1-4.8,51.4-4.7,74.7,12.9c-16.7-5.4-33.3-4.6-49.7-6.2c-8.5-0.8-16.8-3.5-25.2-5.3
		C904,745.1,904,744.7,904,744.2z"/>
	<path class="st0" d="M831,861.2c-13.7,0.9-27.4,2.5-40.7-3C804.3,852.8,817.6,856.7,831,861.2z"/>
	<path class="st0" d="M726.4,852.6c-3.8,1-7.6,1.9-11.5,2.9c-0.3-0.5-0.6-1-1-1.5c2.3-2,4.3-4.7,7-5.7c1.4-0.6,3.9,1.7,5.9,2.7
		C726.7,851.5,726.6,852.1,726.4,852.6z"/>
</g>
</svg>
