<?xml version="1.0" encoding="UTF-8"?>
<svg id="Camada_1" xmlns="http://www.w3.org/2000/svg" viewBox="0 0 3666.97 3666.97">
  <path d="M1278.67,1925.93c3.82-18.72,10.12-32.47,23.49-42.78,3.06-2.29,6.3-4.39,9.36-6.68,7.64-5.54,14.32-11.08,17.57-21.2s9.93-18.53,20.44-24.06c11.46-6.11,20.82-16.42,32.47-21.58,11.65-5.16,20.24-13.37,29.79-21.01,13.56-11.08,28.08-20.63,42.21-30.94,1.72-1.15,2.86-3.06,4.2-4.77,14.32-18.91,28.46-37.82,42.78-56.53,14.52-18.91,35.52-23.49,57.49-25.21,7.07-.57,11.65-3.25,17.38-7.45,19.67-14.32,40.68-26.74,60.93-40.49,4.58-3.06,8.4-7.64,12.22-11.84,2.67-3.06,4.39-7.07,7.26-9.93,17.57-16.42,33.8-34.57,56.15-45.46,1.15-.57,2.1-1.53,3.44-1.72,20.82-3.82,33.04-20.24,48.32-32.28,12.99-10.31,27.31-17.95,45.07-16.62,3.63.19,8.98-2.29,11.27-5.16,7.07-8.59,12.99-17.95,19.29-27.12,4.01-5.73,7.26-12.03,11.84-17.19,12.8-13.94,12.8-28.65,6.49-45.65-4.39-11.65-5.35-24.64-6.49-37.05-.76-6.88-2.48-12.03-9.74-12.99-13.75-2.1-19.86-10.7-19.67-23.68.19-14.52,1.34-29.22,2.67-43.55.95-10.12,6.49-17.76,16.23-21.77,9.74-4.01,14.9-11.46,16.04-21.77.57-6.11.57-11.46-5.54-14.9-1.53-.95-2.67-2.86-3.44-4.39-8.98-15.85-4.77-49.27,10.31-58.82,15.66-9.93,15.85-24.26,17.76-39.15.38-2.86.38-5.73.19-8.59-.57-7.26,1.91-11.27,9.74-12.22,2.29-.38,5.73-4.58,6.11-7.26,1.53-14.13,1.34-28.65,3.44-42.78,1.72-11.46,5.92-22.54,9.74-33.61.95-2.48,4.97-6.49,6.3-5.92,8.21,2.48,13.56-2.67,20.24-4.97,3.25-1.15,8.98,1.34,11.84,4.2,2.48,2.48,2.86,7.45,2.86,11.46.57,16.42.76,32.85.95,49.27,0,4.39.19,9.36-1.53,13.18-9.17,20.44-10.12,42.97-17.57,63.98-2.29,6.68,3.25,12.22,13.75,14.52,28.65,6.11,57.11,12.03,85.56,18.72,17.57,4.2,34.95,9.55,52.33,14.13,2.86.76,6.3.38,9.17-.38,24.83-6.49,49.28-15.66,74.49-19.29,47.17-6.88,94.73-10.89,142.1-15.47,9.93-.95,15.09-3.44,17.57-14.13,8.59-36.1,21.39-70.47,43.55-100.84,10.12-13.75,22.35-24.64,35.33-35.71,19.67-16.62,41.44-19.1,65.32-16.04,8.4,1.15,17.19.76,25.59,2.29,39.53,7.45,99.12,38.77,126.43,67.99,12.22,13.18,21.77,28.84,32.47,43.55,1.15,1.53,1.53,3.82,2.67,6.88-33.42-25.02-61.88-55.2-102.37-64.74-7.83,21.77-15.09,43.16-23.11,64.55-3.82,10.12-8.79,19.67-13.18,29.41-2.67,5.73-2.29,10.31,3.63,13.75,7.45,4.2,14.52,9.55,22.35,12.22,48.7,17,93.58,41.44,136.56,69.14,15.09,9.74,28.27,22.73,40.49,35.91,4.77,4.97,6.49,14.71,6.3,22.15-.38,35.52-1.91,71.24-2.67,106.76-.19,12.03.57,24.26.57,36.29,0,3.06-.38,5.92-1.72,8.79-1.72-26.93-3.25-53.67-5.16-80.6-.57-8.21-1.91-16.42-3.63-24.45-3.25-14.71-10.7-17.19-21.96-7.83-4.97,4.01-10.12,7.83-14.32,12.61-6.11,7.26-10.89,5.73-16.23-.57-2.29-2.67-5.35-4.58-10.12-8.59-1.15,7.45-1.91,12.61-2.67,17.76-.57,4.01-.95,8.21-1.72,12.22-2.86,15.85-7.07,17.76-21.01,10.12-11.27-6.3-22.54-12.61-35.33-19.67-2.86,10.12-3.44,18.33,4.2,23.87,7.64,5.73,13.37,11.46,11.65,21.96-.38,2.1.76,5.54,2.29,6.88,8.02,6.68,10.7,15.09,12.41,25.21.95,5.35,6.11,9.74,9.36,14.71.38.57,1.15.76,1.34,1.34,4.2,11.46,7.83,23.3,12.99,34.38,3.63,7.64,9.17,14.52,13.94,21.58,1.15,1.72,2.67,2.86,4.01,4.58,3.82,5.35,4.2,13.75,13.37,14.32,1.34,0,1.91,4.58,3.63,6.11,2.48,2.29,5.73,4.01,8.98,5.73,2.29,1.15,5.35.95,7.45,2.29,5.16,3.44,7.45,1.72,10.12-3.44,3.25-6.11,8.79-11.08,12.22-17.19,2.48-4.39,3.06-9.74,4.39-14.71.76,0,1.53,0,2.29.19.57,9.55.76,19.1,1.91,28.65,1.34,12.22,3.63,24.45,5.16,36.67.57,4.97,1.53,10.5-.19,14.9-9.17,23.3-18.14,46.79-39.92,62.45-12.41,8.79-25.59,13.75-40.3,15.47-6.88.95-7.64-3.44-8.21-8.79-1.15-13.18-1.72-26.74-4.2-39.73-4.58-24.45-17.57-44.69-34-63.03-27.88-30.75-61.31-53.86-97.98-73.53-20.44-10.89-39.34-24.64-58.82-37.05-4.58-2.86-9.17-5.35-16.62-9.74,0,15.66-.95,29.22.19,42.4,1.91,20.82,4.39,41.83,8.4,62.26,5.16,26.17-1.53,49.85-11.65,73.15-10.12,22.92-30.56,30.75-53.86,33.23-24.64,2.67-49.28,6.11-73.91,8.79-30.75,3.44-53.67,18.14-67.61,46.03-14.9,29.79-30.18,59.4-44.31,89.76-10.12,21.77-24.64,37.24-48.51,43.35-14.32,3.82-28.27,9.55-42.59,13.56-6.11,1.72-7.83,4.77-6.49,10.12,1.72,6.49,3.44,12.99,6.11,18.91,31.89,69.14,70.86,134.26,110.2,199.2,20.82,34.57,40.49,70.09,56.72,106.95,13.18,29.79,20.44,62.07,30.37,93.2,2.48,7.64-3.82,8.59-8.59,9.55-23.87,4.77-47.94,9.55-72,13.75-68.76,12.22-138.08,8.79-207.41,8.59-82.12-.19-164.25,2.1-246.18.57-66.46-1.15-132.93-4.77-199.01-10.31-107.34-9.17-214.86-18.53-321.62-31.89-90.53-11.27-180.29-27.69-270.25-42.4-33.61-5.35-67.04-11.46-100.27-18.14-31.32-6.49-28.46-6.88-18.72-32.85,20.24-53.86,56.34-96.45,97.02-136.37,16.62-16.23,31.9-17.38,53.09-13.37,56.15,10.31,112.87,18.53,169.6,25.78,57.68,7.45,115.55,12.99,173.61,18.33,24.06,2.29,48.32,2.48,72.38,2.48,53.48-.19,106.95-.76,160.24-1.91,37.82-.76,75.63-2.67,113.45-3.25,37.05-.38,70.47,11.08,100.84,32.28,18.72,13.18,38.39,25.02,57.49,37.24,2.1,1.34,4.58,2.29,6.88,3.25,24.64,9.36,38.01-1.91,35.52-28.08-2.48-25.4-18.14-42.97-32.85-61.12-16.42-20.24-36.29-37.62-58.06-51.95-17.19-11.27-35.71-20.63-53.48-30.94-21.01-12.22-39.53-27.69-56.15-45.46-8.59-8.98-13.56-19.29-12.8-31.7.38-5.73-2.1-8.59-6.49-11.27-47.75-29.99-99.31-48.7-156.04-49.66-19.86-.38-40.11.57-59.4,4.77-15.85,3.44-30.75,12.03-45.26,19.48-32.85,17.19-64.94,35.33-97.79,52.52-9.93,5.35-20.63,8.02-33.23,12.6ZM2103.74,1475c-2.86-7.07-6.88-15.09-9.55-23.49-2.29-7.45-3.44-15.47-4.77-23.3-1.15-6.3-4.39-9.74-10.31-12.22-15.09-5.92-29.79-12.61-44.88-18.33-4.97-1.91-10.31-3.25-15.66-3.25-34.95-.57-68.76,5.73-100.65,20.24-13.56,6.11-20.24,17.38-22.73,31.7-1.91,11.08,1.53,23.87-10.5,31.7-.95.57-.57,2.86-.95,4.77,1.72.38,3.06.76,4.2.57,27.12-1.15,53.29,2.48,77.35,15.66,1.72.95,4.2.95,6.49,1.15,21.2.76,41.25,5.16,61.12,12.99,26.74,10.5,54.05,20.05,81.17,29.99,1.91-2.29,3.63-4.2,5.16-6.11,8.59-10.89,8.21-13.56-4.39-19.67-10.5-5.16-21.39-9.74-32.28-14.13-17.19-6.88-34.57-13.37-51.95-20.05,6.49-11.46,26.93-13.75,73.15-8.21ZM1718.7,1617.29c20.24,2.1,38.58,3.44,56.72,6.11,10.89,1.53,21.39,5.73,32.28,7.64,29.99,5.35,60.16,9.55,89.96,15.66,11.84,2.29,22.92,8.21,36.48,13.18-3.44-5.35-5.73-9.36-8.21-13.18-12.61-18.72-32.47-28.27-51.38-38.01-12.41-6.49-26.74-11.46-40.49-12.8-24.64-2.1-49.66-1.72-73.91,4.77-13.75,3.82-27.88,7.26-41.44,16.62ZM2287.85,1434.89c-4.97-8.59-9.17-16.04-13.37-23.49-5.35-9.55-11.84-18.72-15.85-28.65-4.77-11.84-22.15-26.36-34.95-25.4-23.87,2.1-47.56,5.16-72.77,7.83,46.03,23.49,90.15,46.03,136.94,69.71ZM1635.05,1683.56c2.1,1.15,169.41,25.78,170.55,25.4-16.81-17-34.76-33.04-58.63-34.95-26.74-2.1-53.86,0-80.79,1.53-9.93.57-19.86,4.97-31.13,8.02ZM1837.88,1535.93c0,.76-.19,1.72-.19,2.48,16.04,3.44,31.9,8.59,48.13,10.12,31.32,3.06,63.03,1.53,94.92,11.84-44.5-33.42-93.01-33.42-142.86-24.45ZM1698.46,1759.38c-25.4-8.59-50.8-16.23-77.73-5.73,25.4,10.5,51.57,7.45,77.73,5.73ZM1498.68,1742.96c.19-.95.57-2.1.76-3.06-3.82-1.91-8.59-6.3-11.27-5.16-5.16,2.1-8.98,7.07-13.37,10.89.57.95,1.15,1.91,1.91,2.86,7.45-1.91,14.71-3.63,21.96-5.54Z"/>
  <path d="M779.61,2305.99c6.3,1.15,9.74,1.34,12.8,2.29,64.36,19.67,130.44,31.13,196.34,42.4,86.52,14.71,173.23,27.31,260.13,39.34,30.75,4.2,62.07,4.58,93.2,6.68,74.68,5.16,148.4,16.23,222.31,27.31,73.91,11.08,146.87,26.36,219.83,42.4,25.02,5.54,50.42,10.89,75.82,13.94,22.92,2.86,46.22,2.48,69.33,3.63,27.31,1.34,54.43,3.06,81.74,4.2,57.3,2.48,114.59,5.92,171.89,7.07,35.52.57,71.05-1.91,106.38-4.2,20.44-1.34,41.06-3.82,61.31-7.45,26.55-4.77,52.52-12.03,78.88-16.42,74.29-12.03,149.16-21.77,223.27-34.76,50.61-8.98,100.46-21.96,150.5-33.61,7.26-1.72,13.94-5.54,20.82-8.59,6.68,23.87-3.82,45.46-25.78,52.33-49.08,15.09-98.93,25.78-149.54,33.8-92.63,14.9-185.26,29.79-277.7,45.46-91.29,15.28-183.35,18.14-275.6,17.95-110.58-.38-220.97-.38-331.56-3.06-70.67-1.72-141.33-8.59-212.19-12.22-45.65-2.29-91.48-2.1-137.13-4.01-31.32-1.34-62.84-4.01-94.16-6.11-25.59-1.72-51.18-3.44-76.78-5.73-27.5-2.67-55-6.11-82.32-9.36-36.86-4.39-73.91-8.4-110.77-13.75-26.74-3.82-52.9-10.12-79.64-14.71-30.37-5.35-60.73-9.74-91.1-15.28-22.35-4.01-44.31-9.74-60.93-26.55-4.01-4.01-6.3-9.55-9.17-14.52-5.35-9.55-10.31-19.1-15.66-28.65-2.29-4.39-4.97-8.59-7.07-12.99-1.72-3.63-3.06-7.45-4.39-11.27-1.15-3.44-1.34-7.64-3.44-10.5-3.25-4.97-5.35-9.17-1.15-14.71,1.15-1.34.76-4.2.76-6.3.76-7.26.76-14.9.76-24.06Z"/>
  <path d="M2738.39,1661.6c0,8.4.57,16.81-.19,25.21-1.34,14.9-2.48,29.22,8.21,41.64,1.91,2.1,2.29,5.92,2.48,8.98.38,16.23,0,32.47.95,48.51.76,12.22,2.86,24.45,4.77,36.67,4.77,30.75,9.36,61.5,14.52,92.25,6.68,41.06,14.71,81.93,20.05,123.19,3.82,30.56,4.2,61.5,6.11,92.25.19,4.39.38,8.98.95,13.37,1.53,14.13-.19,17.76-13.75,21.96-20.24,6.11-40.87,11.46-61.5,17.19-30.56,8.59-61.12,17.38-91.48,26.17-1.53.38-3.06.57-4.58.95-14.32,3.06-15.85.95-12.61-12.61,9.93-40.3,15.85-81.17,18.53-122.42,3.44-55,6.49-109.82,9.74-164.82,0-.57-.38-.95-.95-2.48-2.86,2.29-5.54,4.2-8.02,6.3-38.96,33.23-76.97,67.61-117.27,99.31-26.55,21.01-55.77,38.77-84.8,56.53-36.67,22.54-84.99,17.95-113.45-29.03-17.76-29.22-24.64-61.69-28.27-95.11-7.07-63.41,2.86-124.33,25.97-183.16,4.77-11.84,12.22-22.73,18.91-33.8,1.15-2.1,4.58-2.67,6.88-4.01,1.15,2.29,3.06,4.58,3.25,7.07,5.35,43.93,14.13,87.28,29.79,128.73,4.77,12.41,10.89,24.45,17.95,35.52,14.32,22.54,37.43,29.22,61.31,16.81,24.45-12.8,48.51-26.55,71.62-41.83,42.21-27.88,84.23-55.96,124.91-85.94,20.24-14.9,38.39-33.23,56.15-51.38,13.94-14.32,22.73-32.09,26.74-51.95,1.34-6.88,3.44-13.37,5.35-20.24.19.19.95.19,1.72.19Z"/>
</svg>