<?xml version="1.0" standalone="no"?>
<!DOCTYPE svg PUBLIC "-//W3C//DTD SVG 20010904//EN"
 "http://www.w3.org/TR/2001/REC-SVG-20010904/DTD/svg10.dtd">
<svg version="1.0" xmlns="http://www.w3.org/2000/svg"
 width="1200.000000pt" height="1200.000000pt" viewBox="0 0 1200.000000 1200.000000"
 preserveAspectRatio="xMidYMid meet">

<g transform="translate(0.000000,1200.000000) scale(0.100000,-0.100000)"
fill="#000000" stroke="none">
<path d="M9434 10072 c-41 -12 -75 -30 -102 -54 -23 -21 -58 -48 -79 -61 -40
-25 -103 -96 -164 -182 -84 -120 -164 -302 -215 -489 -13 -50 -29 -95 -36
-102 -8 -7 -115 -20 -278 -33 -411 -33 -621 -67 -865 -142 -72 -23 -141 -38
-155 -35 -14 2 -97 23 -184 46 -197 51 -542 130 -568 130 -32 0 -98 39 -98 58
0 9 9 43 20 75 11 33 17 70 14 86 -4 17 2 44 15 72 11 24 30 78 42 119 20 65
21 80 11 130 -8 35 -9 96 -5 167 5 95 3 116 -11 137 -20 31 -50 33 -91 6 -21
-14 -39 -18 -60 -14 -40 7 -56 -12 -89 -106 -20 -58 -28 -108 -35 -223 -6 -81
-13 -152 -16 -157 -3 -6 -16 -10 -28 -10 -12 0 -27 -4 -33 -8 -6 -4 -16 -54
-23 -112 -16 -143 -17 -145 -73 -185 -60 -44 -87 -98 -95 -194 -8 -91 2 -134
37 -175 54 -61 33 -147 -46 -193 -68 -40 -81 -56 -98 -115 -17 -59 -24 -230
-12 -296 9 -48 41 -75 102 -87 44 -8 54 -29 54 -114 0 -53 7 -87 27 -138 21
-52 27 -84 27 -139 -1 -68 -2 -72 -45 -125 -24 -30 -64 -88 -89 -129 -25 -41
-64 -94 -86 -118 -39 -40 -44 -42 -81 -36 -82 13 -229 -69 -353 -195 -14 -15
-45 -34 -70 -45 -25 -10 -61 -25 -81 -33 -21 -8 -62 -32 -92 -52 -77 -51 -266
-234 -278 -270 -8 -22 -24 -35 -71 -55 -34 -15 -89 -47 -122 -72 -33 -25 -77
-54 -97 -64 -20 -11 -61 -41 -90 -68 -52 -47 -57 -49 -128 -56 -40 -4 -103
-16 -140 -27 -60 -19 -74 -29 -151 -107 -47 -48 -95 -108 -107 -133 -12 -26
-29 -49 -37 -52 -8 -3 -37 -37 -64 -76 -37 -52 -68 -83 -123 -120 -98 -65
-229 -178 -229 -196 0 -8 -9 -15 -19 -15 -29 0 -141 -61 -210 -114 -33 -25
-64 -46 -69 -46 -26 0 -112 -127 -112 -165 0 -8 -40 -44 -88 -80 -102 -75
-158 -156 -169 -243 l-6 -51 -176 -75 c-377 -160 -1063 -370 -1341 -411 -148
-21 -194 -47 -347 -190 -109 -103 -217 -232 -336 -401 -60 -86 -158 -290 -181
-380 -22 -86 -58 -74 624 -199 928 -169 1239 -214 2135 -306 913 -93 1063
-107 1510 -136 413 -27 439 -27 1580 -30 705 -1 1217 2 1305 8 177 12 546 63
655 90 160 40 155 38 155 62 0 13 -16 77 -34 142 -70 242 -123 382 -198 522
-41 76 -103 192 -138 258 -86 165 -197 354 -304 520 -102 158 -422 775 -438
846 -6 26 -8 54 -5 62 3 8 29 20 59 26 65 14 249 81 317 115 75 38 115 100
265 407 133 271 179 353 240 417 64 69 170 104 376 127 334 36 419 52 487 92
128 75 211 345 169 548 -28 131 -45 331 -39 443 3 56 9 102 13 102 4 0 50 -28
101 -61 145 -95 244 -155 379 -231 163 -91 250 -156 388 -292 196 -192 263
-331 281 -581 l6 -90 33 -3 c72 -7 182 43 271 125 56 50 72 73 119 172 63 132
70 167 48 239 -24 84 -39 556 -32 1020 4 218 8 417 10 442 6 106 -20 152 -147
261 -142 121 -499 322 -734 413 -78 30 -161 65 -185 77 -49 24 -98 67 -98 85
0 7 14 38 30 70 51 97 152 370 165 446 l6 36 74 -25 c112 -37 322 -178 473
-317 33 -31 33 -31 24 -6 -18 48 -147 224 -207 283 -89 88 -149 129 -281 193
-66 32 -141 72 -169 89 -63 40 -70 42 -180 65 -133 27 -334 33 -411 12z
m-1023 -1964 c58 -42 80 -70 107 -142 12 -32 43 -83 67 -112 40 -46 85 -144
66 -144 -3 0 -24 12 -45 26 -91 62 -227 134 -449 239 -131 62 -240 115 -243
117 -2 3 40 10 93 17 54 7 127 16 163 20 36 5 95 9 131 10 59 1 70 -2 110 -31z
m-1024 -234 c87 -36 164 -71 171 -78 7 -7 21 -56 32 -109 23 -116 40 -159 71
-182 l24 -17 -25 6 c-52 13 -228 18 -299 8 -52 -8 -81 -17 -95 -32 -18 -18
-19 -22 -6 -30 8 -5 22 -10 30 -10 8 0 51 -14 95 -31 44 -17 110 -42 147 -56
112 -42 233 -106 236 -126 2 -10 -9 -36 -24 -58 -32 -47 -35 -47 -154 5 -41
18 -100 39 -130 46 -30 7 -100 32 -155 56 -55 24 -127 50 -160 58 -80 19 -213
39 -223 32 -5 -3 -26 4 -48 16 -72 39 -202 69 -321 75 -62 3 -113 10 -113 15
0 5 13 21 29 36 25 24 30 36 36 107 8 89 40 163 84 194 104 73 357 137 553
140 85 1 89 0 245 -65z m-666 -718 c137 -51 313 -146 228 -122 -82 23 -175 36
-329 46 -150 9 -363 43 -430 67 -49 18 214 44 371 37 70 -3 114 -11 160 -28z
m-449 -347 c126 -42 280 -127 344 -190 46 -44 107 -129 100 -136 -2 -3 -35 9
-73 25 -118 52 -257 82 -526 117 -71 9 -148 23 -170 31 -60 22 -200 43 -287
45 -41 0 -86 4 -100 8 l-25 7 23 13 c49 26 161 64 242 81 129 28 389 27 472
-1z m-549 -408 c57 -14 184 -90 246 -148 l56 -52 -30 -1 c-40 0 -177 23 -295
50 -169 38 -312 60 -445 66 -71 4 -141 11 -155 17 -23 9 -20 11 45 34 44 16
107 27 170 32 142 11 363 12 408 2z m-1408 -351 c10 -11 16 -22 14 -25 -8 -8
-122 -35 -127 -30 -3 2 7 20 22 40 31 40 63 46 91 15z m1015 -87 l105 -28 -45
-7 c-90 -13 -227 -8 -311 12 -45 10 -84 21 -86 24 -3 3 12 8 33 11 22 3 46 8
54 10 55 11 155 2 250 -22z"/>
<path d="M11111 6387 c-28 -111 -55 -175 -112 -259 -75 -112 -264 -283 -452
-410 -67 -45 -156 -107 -197 -138 -210 -157 -590 -397 -761 -480 -93 -45 -152
-51 -231 -25 -133 46 -248 276 -328 660 -18 83 -34 153 -36 157 -2 3 -9 53
-15 110 -13 128 -25 145 -69 97 -57 -62 -102 -160 -160 -354 -88 -295 -104
-415 -91 -703 10 -222 25 -315 72 -456 46 -139 94 -221 180 -307 67 -69 83
-79 143 -98 91 -28 212 -28 291 -1 163 56 554 325 802 553 97 89 454 390 457
386 2 -2 -1 -38 -5 -79 -4 -41 -13 -196 -19 -345 -19 -491 -70 -957 -126
-1155 -29 -104 -11 -110 161 -55 60 20 245 71 411 115 317 83 404 111 425 136
9 11 10 68 6 242 -4 125 -9 247 -12 272 -10 87 -57 376 -85 530 -16 85 -36
214 -45 285 -30 241 -55 399 -80 505 -20 87 -25 139 -28 305 l-4 200 -33 58
-33 58 8 138 c4 77 3 141 -2 144 -5 3 -19 -36 -32 -86z"/>
<path d="M383 2918 c-4 -7 -8 -44 -8 -83 -1 -38 -6 -79 -12 -90 -9 -17 -7 -28
13 -60 13 -22 24 -54 24 -71 0 -20 11 -45 30 -69 17 -21 30 -45 30 -55 0 -9
13 -29 29 -44 17 -16 34 -47 40 -72 6 -25 18 -47 26 -50 8 -4 15 -16 15 -28 0
-68 207 -170 395 -196 117 -15 459 -74 590 -100 211 -43 305 -60 395 -70 58
-6 134 -15 170 -20 36 -5 108 -14 160 -20 152 -18 439 -54 555 -70 39 -5 97
-10 130 -11 33 -1 227 -15 430 -30 234 -18 490 -30 695 -33 358 -7 490 -12
625 -27 261 -27 419 -39 600 -45 110 -3 214 -8 230 -11 38 -5 1410 -18 2005
-18 948 0 1105 14 2250 205 234 39 589 98 790 131 212 35 459 84 590 115 319
78 383 103 414 163 16 30 41 190 31 199 -3 3 -20 0 -38 -7 -112 -46 -185 -66
-472 -130 -176 -39 -399 -84 -495 -101 -268 -46 -859 -137 -1005 -155 -71 -9
-197 -29 -280 -45 -82 -16 -177 -32 -210 -35 -33 -4 -70 -13 -82 -21 -12 -8
-37 -14 -55 -14 -18 0 -58 -7 -88 -15 -68 -19 -513 -46 -780 -47 -54 0 -864
33 -1025 42 -93 6 -241 12 -328 15 -86 2 -185 9 -220 15 -34 5 -102 10 -152
10 -49 0 -118 7 -153 15 -35 8 -131 26 -215 40 -84 13 -253 47 -377 75 -331
75 -486 106 -681 135 -96 14 -286 43 -424 65 -137 22 -313 49 -390 60 -172 25
-714 76 -965 90 -281 17 -536 49 -992 125 -80 14 -240 39 -355 55 -234 34
-302 46 -733 131 -309 61 -522 110 -645 148 -79 25 -72 24 -82 9z"/>
</g>
</svg>
